{"title":"The Stranger Within 2013 DVDRiP XViD UNiQUE","uid":8867208,"size":1489561939,"categoryP":"video","categoryS":"movies","magnet":"?xt=urn:btih:272cd20a3c3c3988c4d27b012d3cdd367585dfbc&amp;dn=The+Stranger+Within+2013+DVDRiP+XViD+UNiQUE&amp;tr=udp%3A%2F%2Ftracker.openbittorrent.com%3A80&amp;tr=udp%3A%2F%2Fopen.demonii.com%3A1337&amp;tr=udp%3A%2F%2Ftracker.coppersurfer.tk%3A6969&amp;tr=udp%3A%2F%2Fexodus.desync.com%3A6969","seeders":15,"leechers":7,"uploader":"xxxlavalxxx","files":-1,"time":1377907863,"description":" &lt;a href=&quot;\nhttp://www.imdb.com/title/tt2180571/&quot; rel=&quot;nofollow&quot; target=&quot;_NEW&quot;&gt;\nhttp://www.imdb.com/title/tt2180571/&lt;/a&gt;\n\n\nAfter a traumatic ordeal, acclaimed actress Emily Moore (Warren) and her psychiatrist husband, Robert (Baldwin), escape on a relaxing vacation to a gorgeous remote Mediterranean island. \n\n\n\nDirector:\n Adam Neutzsky-Wulff \n\nWriter:\n Adam Neutzsky-Wulff \n\nStars:\n Estella Warren, William Baldwin, Katia Winter \n\nGenres:\n  Thriller \n\nCountry:\n Denmark \n\nLanguage:\n English \n\n\n\nFormat                                   : AVI\n Format/Info                              : Audio Video Interleave\n File size                                : 1.37 GiB\n Duration                                 : 1h 30mn\n Overall bit rate                         : 2 173 Kbps\n Writing application                      : VirtualDubMod 1.5.10.2 (build 2540/release)\n Writing library                          : VirtualDubMod build 2540/release\n\n Video\n ID                                       : 0\n Format                                   : MPEG-4 Visual\n Format profile                           : Advanced Simple@L5\n Format settings, BVOP                    : 2\n Format settings, QPel                    : No\n Format settings, GMC                     : No warppoints\n Format settings, Matrix                  : Default (H.263)\n Muxing mode                              : Packed bitstream\n Codec ID                                 : XVID\n Codec ID/Hint                            : XviD\n Duration                                 : 1h 30mn\n Bit rate                                 : 1 716 Kbps\n Width                                    : 720 pixels\n Height                                   : 304 pixels\n Display aspect ratio                     : 3:2\n Original display aspect ratio            : 2.35:1\n Frame rate                               : 23.976 fps\n Color space                              : YUV\n Chroma subsampling                       : 4:2:0\n Bit depth                                : 8 bits\n Scan type                                : Progressive\n Compression mode                         : Lossy\n Bits/(Pixel*Frame)                       : 0.327\n Stream size                              : 1.09 GiB (79%)\n Writing library                          : XviD 64\n\n Audio\n ID                                       : 1\n Format                                   : AC-3\n Format/Info                              : Audio Coding 3\n Mode extension                           : CM (complete main)\n Format settings, Endianness              : Big\n Codec ID                                 : 2000\n Duration                                 : 1h 30mn\n Bit rate mode                            : Constant\n Bit rate                                 : 448 Kbps\n Channel(s)                               : 6 channels\n Channel positions                        : Front: L C R, Side: L R, LFE\n Sampling rate                            : 48.0 KHz\n Bit depth                                : 16 bits\n Compression mode                         : Lossy\n Stream size                              : 290 MiB (21%)\n Alignment                                : Aligned on interleaves\n Interleave, duration                     : 42 ms (1.00 video frame)\n Interleave, preload duration             : 512 ms\n\n\nSource Used    The Stranger Within 2013 DVDR R1 NTSC Latino - Thanks\n\n\n &lt;a href=&quot;\nhttp://bayimg.com/cApijAaee&quot; rel=&quot;nofollow&quot; target=&quot;_NEW&quot;&gt;\nhttp://bayimg.com/cApijAaee&lt;/a&gt; &lt;a href=&quot;\nhttp://bayimg.com/CApIkaAEe&quot; rel=&quot;nofollow&quot; target=&quot;_NEW&quot;&gt;\nhttp://bayimg.com/CApIkaAEe&lt;/a&gt;","torrent":{"xt":"urn:btih:272cd20a3c3c3988c4d27b012d3cdd367585dfbc","amp;dn":"The+Stranger+Within+2013+DVDRiP+XViD+UNiQUE","amp;tr":["udp%3A%2F%2Ftracker.openbittorrent.com%3A80","udp%3A%2F%2Fopen.demonii.com%3A1337","udp%3A%2F%2Ftracker.coppersurfer.tk%3A6969","udp%3A%2F%2Fexodus.desync.com%3A6969"],"infoHash":"272cd20a3c3c3988c4d27b012d3cdd367585dfbc","infoHashBuffer":{"type":"Buffer","data":[39,44,210,10,60,60,57,136,196,210,123,1,45,60,221,54,117,133,223,188]},"announce":[],"urlList":[]}}